Hanif_Shallow_5_0_grf.mot
version=1
nRows=64
nColumns=19
inDegrees=yes
endheader
time	right_ground_force_vx	right_ground_force_vy	right_ground_force_vz	right_ground_force_px	right_ground_force_py	right_ground_force_pz	right_ground_torque_x	right_ground_torque_y	right_ground_torque_z	left_ground_force_vx	left_ground_force_vy	left_ground_force_vz	left_ground_force_px	left_ground_force_py	left_ground_force_pz	left_ground_torque_x	left_ground_torque_y	left_ground_torque_z
5.975000	3.460590	403.181000	67.462700	0.196398	0.000000	-1.436050	-28.143500	7.529140	-0.273764	-6.928240	366.875000	-64.419000	0.219338	0.000000	-0.982719	29.416400	-7.176890	8.670700
5.980000	3.029290	401.526000	67.415800	0.197153	0.000000	-1.435260	-28.350800	7.477880	0.044007	-7.345400	363.559000	-64.465800	0.219538	0.000000	-0.982044	28.917000	-7.052690	8.680190
5.985000	2.723830	397.523000	66.972900	0.197321	0.000000	-1.435170	-28.110000	7.214720	0.087647	-7.476970	360.088000	-64.651200	0.219864	0.000000	-0.982995	28.990100	-7.023610	8.751730
5.990000	2.406440	392.797000	66.912100	0.198224	0.000000	-1.435010	-27.841200	7.134290	0.468527	-7.090600	356.978000	-64.590000	0.220026	0.000000	-0.983164	28.792200	-6.980430	8.748680
5.995000	2.557880	389.897000	66.520200	0.198267	0.000000	-1.434490	-27.837400	7.003260	0.468089	-6.811520	351.632000	-64.427000	0.220138	0.000000	-0.983367	28.428500	-6.872710	8.678520
6.000000	2.106150	387.275000	66.463100	0.199094	0.000000	-1.434310	-27.729200	6.875900	0.792847	-7.151460	347.739000	-64.319100	0.220485	0.000000	-0.983479	28.163900	-6.768040	8.725320
6.005000	1.781210	384.559000	66.427100	0.199204	0.000000	-1.434330	-27.530200	6.751690	0.828861	-7.010870	343.350000	-64.500400	0.220530	0.000000	-0.983891	27.949900	-6.715530	8.665690
6.010000	1.868500	382.499000	66.105200	0.200269	0.000000	-1.433960	-27.523000	6.610000	1.225190	-7.239560	340.675000	-63.315200	0.220790	0.000000	-0.983695	27.671000	-6.582160	8.659080
6.015000	1.220880	378.003000	65.562000	0.200969	0.000000	-1.433380	-27.428600	6.419690	1.475200	-7.334770	334.868000	-62.985300	0.221407	0.000000	-0.983890	27.273300	-6.541760	8.764010
6.020000	1.232910	373.136000	65.644500	0.201357	0.000000	-1.432530	-27.392800	6.378530	1.628160	-7.725310	330.488000	-62.663400	0.221782	0.000000	-0.984468	27.121200	-6.426370	8.795440
6.025000	1.031100	369.513000	65.369600	0.202299	0.000000	-1.432000	-27.325400	6.161450	1.952440	-8.154160	326.292000	-61.559400	0.222668	0.000000	-0.984880	26.927600	-6.370870	8.987460
6.030000	0.472103	369.570000	65.207900	0.203390	0.000000	-1.432790	-27.049000	5.872740	2.322110	-8.924420	321.922000	-61.215900	0.222931	0.000000	-0.985204	26.694700	-6.209840	8.969320
6.035000	-0.226527	363.970000	65.244800	0.203671	0.000000	-1.431080	-27.272800	5.814480	2.424560	-9.086860	317.333000	-60.672400	0.224204	0.000000	-0.985008	26.261600	-6.086460	9.267660
6.040000	-0.358593	359.666000	65.238400	0.204212	0.000000	-1.431530	-26.791100	5.610950	2.587490	-8.733490	311.412000	-59.622200	0.224443	0.000000	-0.985992	26.073200	-5.969160	9.172460
6.045000	-0.912060	358.009000	64.680800	0.204493	0.000000	-1.430940	-26.889000	5.527010	2.671780	-9.256640	307.401000	-59.552300	0.224822	0.000000	-0.985886	25.723200	-5.853430	9.199170
6.050000	-1.413680	353.186000	64.754800	0.205047	0.000000	-1.431060	-26.489500	5.377700	2.847680	-9.183040	302.766000	-58.877500	0.224976	0.000000	-0.985992	25.369100	-5.746000	9.113510
6.055000	-1.336690	349.421000	64.914900	0.205445	0.000000	-1.430340	-26.458900	5.201590	2.953280	-9.655940	299.418000	-58.659600	0.225060	0.000000	-0.986067	25.126900	-5.634540	9.052530
6.060000	-1.943080	347.415000	64.518700	0.206426	0.000000	-1.430780	-26.165700	5.089290	3.281600	-8.631160	294.637000	-58.183900	0.225365	0.000000	-0.986644	24.871700	-5.557260	9.004840
6.065000	-2.234340	340.737000	64.210100	0.207534	0.000000	-1.429340	-26.156300	4.926490	3.618860	-8.858990	291.619000	-58.265400	0.225489	0.000000	-0.986287	24.525100	-5.574770	8.991180
6.070000	-2.975420	339.246000	63.956200	0.207740	0.000000	-1.429610	-25.965500	4.866160	3.679340	-8.174760	286.981000	-57.525600	0.225744	0.000000	-0.986691	24.234200	-5.439580	8.912480
6.075000	-2.776940	337.051000	64.133800	0.208130	0.000000	-1.429610	-25.791600	4.784960	3.790160	-7.840620	282.892000	-56.870000	0.225467	0.000000	-0.987098	23.997100	-5.346440	8.702950
6.080000	-2.826450	331.416000	64.173500	0.208603	0.000000	-1.428670	-25.676400	4.710360	3.912620	-7.558350	277.953000	-56.844100	0.225066	0.000000	-0.986983	23.544100	-5.321950	8.476790
6.085000	-2.703110	331.258000	64.264700	0.209686	0.000000	-1.428690	-25.652600	4.589140	4.260150	-7.462510	276.685000	-56.476500	0.225134	0.000000	-0.986163	23.204800	-5.182090	8.428380
6.090000	-2.872500	327.063000	64.555800	0.209778	0.000000	-1.427860	-25.604700	4.573010	4.269690	-6.769740	272.999000	-56.139400	0.225221	0.000000	-0.986236	22.900400	-5.156200	8.352790
6.095000	-2.608980	324.921000	64.412800	0.209982	0.000000	-1.428700	-25.157700	4.425980	4.288290	-7.001200	269.360000	-55.837100	0.225850	0.000000	-0.986903	22.783900	-5.037520	8.428160
6.100000	-2.392040	321.991000	65.091000	0.210189	0.000000	-1.428570	-24.970500	4.365460	4.334660	-6.799660	265.015000	-55.684400	0.225972	0.000000	-0.986475	22.301200	-4.966450	8.349610
6.105000	-2.227970	318.553000	65.397100	0.211022	0.000000	-1.427160	-25.151800	4.288080	4.575310	-6.390770	263.142000	-55.852200	0.225702	0.000000	-0.986863	22.235300	-4.921850	8.226290
6.110000	-1.787600	316.963000	65.676700	0.211759	0.000000	-1.426890	-25.104700	4.140740	4.774370	-6.619390	262.011000	-55.821400	0.226336	0.000000	-0.986441	22.033700	-4.756080	8.344400
6.115000	-1.859420	315.301000	65.950200	0.211568	0.000000	-1.427120	-24.900200	4.101360	4.695410	-5.805320	257.772000	-55.681600	0.227037	0.000000	-0.987286	21.877500	-4.710500	8.417690
6.120000	-1.270360	312.487000	66.084000	0.212753	0.000000	-1.426150	-24.971400	4.000510	5.030990	-6.157710	255.231000	-55.565600	0.228293	0.000000	-0.988323	21.938900	-4.610850	8.681830
6.125000	-1.129900	309.715000	66.626600	0.213224	0.000000	-1.426370	-24.679000	3.898660	5.143230	-5.887080	253.311000	-55.422100	0.227657	0.000000	-0.987833	21.641700	-4.534740	8.442710
6.130000	-1.299330	309.264000	66.696300	0.214027	0.000000	-1.426140	-24.717000	3.835010	5.389090	-5.255440	249.689000	-55.462600	0.228220	0.000000	-0.987350	21.196100	-4.397710	8.469180
6.135000	-1.678210	305.722000	67.044000	0.215255	0.000000	-1.424980	-24.795100	3.671970	5.723270	-4.712390	250.272000	-55.776300	0.228715	0.000000	-0.987216	21.196400	-4.346370	8.600630
6.140000	-1.543600	303.771000	66.643000	0.215921	0.000000	-1.424420	-24.805700	3.600690	5.886640	-4.622000	247.420000	-55.908600	0.229203	0.000000	-0.988269	21.214600	-4.245800	8.642680
6.145000	-1.724670	302.176000	66.214800	0.216406	0.000000	-1.424260	-24.725500	3.329420	5.956060	-4.170360	246.235000	-55.704200	0.228287	0.000000	-0.987482	20.905600	-4.166950	8.344070
6.150000	-1.840050	297.356000	65.845500	0.217283	0.000000	-1.423040	-24.698300	3.265590	6.148230	-4.130950	241.723000	-55.410200	0.228634	0.000000	-0.988704	20.820600	-4.137760	8.314960
6.155000	-2.092430	295.799000	65.399100	0.218620	0.000000	-1.423830	-24.338500	3.143040	6.510050	-3.703930	239.162000	-54.849800	0.229300	0.000000	-0.988644	20.575500	-4.068670	8.381910
6.160000	-2.317480	292.841000	64.831800	0.218927	0.000000	-1.423780	-24.112500	2.902260	6.498850	-3.668070	236.535000	-54.334100	0.229354	0.000000	-0.988615	20.340700	-3.879240	8.272800
6.165000	-2.526440	289.664000	63.968600	0.219633	0.000000	-1.423440	-23.950100	2.701170	6.607000	-3.800930	234.604000	-54.107100	0.229179	0.000000	-0.988368	20.119900	-3.787600	8.158050
6.170000	-2.700730	284.341000	63.139800	0.220457	0.000000	-1.421980	-23.930700	2.616070	6.734990	-3.307420	229.402000	-53.090600	0.230720	0.000000	-0.989035	19.817600	-3.700090	8.346890
6.175000	-2.809060	281.578000	62.667300	0.220400	0.000000	-1.422660	-23.507300	2.499370	6.637180	-4.014260	226.655000	-52.209300	0.230512	0.000000	-0.988802	19.545200	-3.586970	8.188280
6.180000	-2.739610	276.695000	61.677300	0.221173	0.000000	-1.421150	-23.517500	2.394410	6.735250	-4.026270	223.476000	-51.116400	0.230780	0.000000	-0.988041	19.100600	-3.407280	8.096160
6.185000	-3.281960	272.359000	60.821600	0.221571	0.000000	-1.421390	-23.090400	2.281350	6.739500	-4.213860	219.447000	-50.409400	0.231815	0.000000	-0.989260	19.031700	-3.354060	8.204040
6.190000	-3.902680	268.649000	59.673000	0.221619	0.000000	-1.421000	-22.890200	2.075720	6.629200	-4.546660	217.539000	-49.787200	0.231588	0.000000	-0.989841	18.999400	-3.201290	8.054560
6.195000	-3.724130	265.016000	58.893400	0.222090	0.000000	-1.421180	-22.530300	1.979910	6.653640	-4.298180	214.154000	-49.196800	0.231647	0.000000	-0.990367	18.812700	-3.186460	7.953190
6.200000	-4.209140	261.706000	57.769800	0.222562	0.000000	-1.421760	-22.103700	1.858170	6.680760	-4.671790	212.236000	-48.704700	0.232478	0.000000	-0.991353	18.863800	-3.098900	8.061840
6.205000	-4.634400	258.905000	56.547400	0.223322	0.000000	-1.421250	-22.002300	1.688130	6.780790	-4.790890	211.526000	-47.975900	0.232873	0.000000	-0.990257	18.572500	-3.092200	8.107450
6.210000	-4.452840	255.076000	55.810100	0.223399	0.000000	-1.421220	-21.682300	1.628850	6.693140	-4.641910	211.443000	-47.462100	0.232861	0.000000	-0.990586	18.627700	-2.958090	8.053620
6.215000	-4.556750	251.001000	55.241100	0.223367	0.000000	-1.421300	-21.317000	1.541310	6.573240	-4.684170	209.071000	-47.303100	0.232752	0.000000	-0.990342	18.371100	-2.973730	7.963380
6.220000	-4.975140	247.830000	54.089800	0.223882	0.000000	-1.420890	-21.154700	1.422670	6.603640	-4.090340	208.633000	-46.616800	0.232151	0.000000	-0.989409	18.122200	-2.957520	7.782550
6.225000	-5.493260	245.527000	53.599000	0.224086	0.000000	-1.420670	-21.020000	1.295790	6.580920	-3.324710	207.971000	-47.251000	0.231610	0.000000	-0.989988	18.165100	-2.855920	7.627860
6.230000	-5.717500	241.973000	52.186200	0.224125	0.000000	-1.420180	-20.834500	1.166050	6.466390	-3.527020	206.778000	-47.064600	0.231397	0.000000	-0.989833	18.032300	-2.734440	7.520660
6.235000	-6.055900	239.194000	51.645400	0.223949	0.000000	-1.420190	-20.595400	1.025920	6.329220	-2.797580	206.492000	-47.545500	0.231265	0.000000	-0.988924	17.803200	-2.738730	7.484090
6.240000	-6.450470	237.084000	50.019800	0.224350	0.000000	-1.421100	-20.202600	0.929940	6.341650	-3.122910	205.127000	-47.303900	0.231783	0.000000	-0.989292	17.768000	-2.646230	7.538580
6.245000	-6.423920	232.510000	49.554700	0.224344	0.000000	-1.419670	-20.143700	0.805971	6.207340	-2.782680	206.750000	-47.174300	0.229913	0.000000	-0.988099	17.650600	-2.532370	7.138300
6.250000	-6.765680	232.872000	48.726200	0.224228	0.000000	-1.420670	-19.943900	0.725033	6.161480	-2.703450	205.027000	-47.234300	0.230590	0.000000	-0.988831	17.652500	-2.478200	7.229080
6.255000	-7.046780	231.759000	48.028200	0.223768	0.000000	-1.420430	-19.901300	0.518406	5.977420	-3.063800	205.388000	-47.322000	0.229903	0.000000	-0.986439	17.198000	-2.391960	7.077850
6.260000	-6.492410	227.928000	47.084200	0.224540	0.000000	-1.420280	-19.601000	0.485013	6.047290	-2.174990	204.867000	-46.183000	0.229779	0.000000	-0.987123	17.274300	-2.236550	6.956100
6.265000	-6.295820	225.567000	46.228700	0.224759	0.000000	-1.419800	-19.500400	0.349220	6.002120	-2.428510	204.187000	-46.092600	0.228117	0.000000	-0.987064	17.208900	-2.210350	6.578820
6.270000	-6.434600	223.875000	45.701800	0.224502	0.000000	-1.419770	-19.360800	0.311878	5.890990	-2.453140	202.013000	-45.556400	0.227012	0.000000	-0.985710	16.752500	-2.183490	6.272450
6.275000	-5.452930	224.123000	45.539100	0.223777	0.000000	-1.420490	-19.204900	0.091774	5.662410	-2.153240	200.814000	-45.405900	0.227035	0.000000	-0.986642	16.834300	-2.118550	6.226390
6.280000	-5.215000	219.954000	44.967100	0.224347	0.000000	-1.419940	-18.969800	0.124354	5.696280	-2.713060	200.789000	-45.336800	0.224713	0.000000	-0.983873	16.283700	-2.013700	5.719270
6.285000	-5.541120	219.855000	44.400200	0.223571	0.000000	-1.419860	-18.975000	-0.034814	5.482800	-2.220550	198.481000	-44.953900	0.223629	0.000000	-0.983584	16.031100	-2.046990	5.434700
6.290000	-5.054800	216.961000	43.504700	0.223483	0.000000	-1.418910	-18.925000	-0.186346	5.350660	-2.437800	198.176000	-45.073700	0.221837	0.000000	-0.983026	15.898800	-2.040720	5.059960
